HIERARCHY
ROOT hip
{
	OFFSET 0.000000 0.000000 0.000000 
	CHANNELS 6 Xposition Yposition Zposition Zrotation Yrotation Xrotation
	JOINT abdomen
	{
		OFFSET 0.000000 20.688101 -0.731520 
		CHANNELS 3 Zrotation Xrotation Yrotation
		JOINT chest
		{
			OFFSET 0.000000 11.704300 -0.487680 
			CHANNELS 3 Zrotation Xrotation Yrotation
			JOINT neck
			{
				OFFSET 0.000000 22.189400 -2.194560 
				CHANNELS 3 Zrotation Xrotation Yrotation
				JOINT head
				{
					OFFSET -0.243840 7.071330 1.219200 
					CHANNELS 3 Zrotation Xrotation Yrotation
					JOINT leftEye
					{
						OFFSET 4.145280 8.046740 8.046720 
						CHANNELS 3 Zrotation Xrotation Yrotation
						End Site
						{
							OFFSET 1.000000 0.000000 0.000000 
						}
					}
					JOINT rightEye
					{
						OFFSET -3.657600 8.046740 8.046720 
						CHANNELS 3 Zrotation Xrotation Yrotation
						End Site
						{
							OFFSET 1.000000 0.000000 0.000000 
						}
					}
				}
			}
			JOINT rCollar
			{
				OFFSET -2.682240 19.263399 -4.876800 
				CHANNELS 3 Zrotation Xrotation Yrotation
				JOINT rShldr
				{
					OFFSET -8.778240 -1.950730 1.463040 
					CHANNELS 3 Zrotation Xrotation Yrotation
					JOINT rForeArm
					{
						OFFSET -28.174200 -1.711500 0.487680 
						CHANNELS 3 Zrotation Xrotation Yrotation
						JOINT rHand
						{
							OFFSET -22.587900 0.773209 7.071360 
							CHANNELS 3 Zrotation Xrotation Yrotation
							JOINT rThumb1
							{
								OFFSET -1.219200 -0.487915 3.413760 
								CHANNELS 3 Zrotation Xrotation Yrotation
								JOINT rThumb2
								{
									OFFSET -3.370350 -0.524490 3.413760 
									CHANNELS 3 Zrotation Xrotation Yrotation
									End Site
									{
										OFFSET -1.782710 -1.182140 1.430490 
									}
								}
							}
							JOINT rIndex1
							{
								OFFSET -7.759470 0.938293 5.608320 
								CHANNELS 3 Zrotation Xrotation Yrotation
								JOINT rIndex2
								{
									OFFSET -2.540570 -0.884171 1.565380 
									CHANNELS 3 Zrotation Xrotation Yrotation
									End Site
									{
										OFFSET -1.625190 -0.234802 1.165020 
									}
								}
							}
							JOINT rMid1
							{
								OFFSET -8.247140 1.182130 3.413760 
								CHANNELS 3 Zrotation Xrotation Yrotation
								JOINT rMid2
								{
									OFFSET -3.101650 -0.590103 1.064700 
									CHANNELS 3 Zrotation Xrotation Yrotation
									End Site
									{
										OFFSET -2.485470 -0.328903 0.837420 
									}
								}
							}
							JOINT rRing1
							{
								OFFSET -8.828220 0.546677 1.516780 
								CHANNELS 3 Zrotation Xrotation Yrotation
								JOINT rRing2
								{
									OFFSET -2.609340 -0.819778 -0.019849 
									CHANNELS 3 Zrotation Xrotation Yrotation
									End Site
									{
										OFFSET -2.338420 -0.294052 0.168128 
									}
								}
							}
							JOINT rPinky1
							{
								OFFSET -8.272020 -0.047791 -0.458400 
								CHANNELS 3 Zrotation Xrotation Yrotation
								JOINT rPinky2
								{
									OFFSET -1.827340 -0.647385 -0.700984 
									CHANNELS 3 Zrotation Xrotation Yrotation
									End Site
									{
										OFFSET -1.692250 -0.517670 -0.607171 
									}
								}
							}
						}
					}
				}
			}
			JOINT lCollar
			{
				OFFSET 2.682240 19.263399 -4.876800 
				CHANNELS 3 Zrotation Xrotation Yrotation
				JOINT lShldr
				{
					OFFSET 8.778240 -1.950730 1.463040 
					CHANNELS 3 Zrotation Xrotation Yrotation
					JOINT lForeArm
					{
						OFFSET 28.174200 -1.711500 0.487680 
						CHANNELS 3 Zrotation Xrotation Yrotation
						JOINT lHand
						{
							OFFSET 22.587900 0.773209 7.071360 
							CHANNELS 3 Zrotation Xrotation Yrotation
							JOINT lThumb1
							{
								OFFSET 1.219200 -0.487915 3.413760 
								CHANNELS 3 Zrotation Xrotation Yrotation
								JOINT lThumb2
								{
									OFFSET 3.370350 -0.524490 3.413760 
									CHANNELS 3 Zrotation Xrotation Yrotation
									End Site
									{
										OFFSET 1.782710 -1.182140 1.430490 
									}
								}
							}
							JOINT lIndex1
							{
								OFFSET 7.759470 0.938293 5.608320 
								CHANNELS 3 Zrotation Xrotation Yrotation
								JOINT lIndex2
								{
									OFFSET 2.540570 -0.884171 1.565380 
									CHANNELS 3 Zrotation Xrotation Yrotation
									End Site
									{
										OFFSET 1.625190 -0.234802 1.165020 
									}
								}
							}
							JOINT lMid1
							{
								OFFSET 8.247140 1.182130 3.413760 
								CHANNELS 3 Zrotation Xrotation Yrotation
								JOINT lMid2
								{
									OFFSET 3.101650 -0.590103 1.064700 
									CHANNELS 3 Zrotation Xrotation Yrotation
									End Site
									{
										OFFSET 2.485470 -0.328903 0.837420 
									}
								}
							}
							JOINT lRing1
							{
								OFFSET 8.828220 0.546677 1.516780 
								CHANNELS 3 Zrotation Xrotation Yrotation
								JOINT lRing2
								{
									OFFSET 2.609340 -0.819778 -0.019849 
									CHANNELS 3 Zrotation Xrotation Yrotation
									End Site
									{
										OFFSET 2.338420 -0.294052 0.168128 
									}
								}
							}
							JOINT lPinky1
							{
								OFFSET 8.272020 -0.047791 -0.458400 
								CHANNELS 3 Zrotation Xrotation Yrotation
								JOINT lPinky2
								{
									OFFSET 1.827340 -0.647385 -0.700984 
									CHANNELS 3 Zrotation Xrotation Yrotation
									End Site
									{
										OFFSET 1.692250 -0.517670 -0.607171 
									}
								}
							}
						}
					}
				}
			}
		}
	}
	JOINT rButtock
	{
		OFFSET -8.778240 4.350840 1.219200 
		CHANNELS 3 Zrotation Xrotation Yrotation
		JOINT rThigh
		{
			OFFSET 0.000000 -1.706870 -2.194560 
			CHANNELS 3 Zrotation Xrotation Yrotation
			JOINT rShin
			{
				OFFSET 0.000000 -36.819901 0.731520 
				CHANNELS 3 Zrotation Xrotation Yrotation
				JOINT rFoot
				{
					OFFSET 0.731520 -45.110401 -5.120640 
					CHANNELS 3 Zrotation Xrotation Yrotation
					End Site
					{
						OFFSET -1.122100 -3.699640 12.103000 
					}
				}
			}
		}
	}
	JOINT lButtock
	{
		OFFSET 8.778240 4.350840 1.219200 
		CHANNELS 3 Zrotation Xrotation Yrotation
		JOINT lThigh
		{
			OFFSET 0.000000 -1.706870 -2.194560 
			CHANNELS 3 Zrotation Xrotation Yrotation
			JOINT lShin
			{
				OFFSET 0.000000 -36.819901 0.731520 
				CHANNELS 3 Zrotation Xrotation Yrotation
				JOINT lFoot
				{
					OFFSET -0.731520 -45.110401 -5.120640 
					CHANNELS 3 Zrotation Xrotation Yrotation
					End Site
					{
						OFFSET 1.122100 -3.699640 12.103000 
					}
				}
			}
		}
	}
}
MOTION
Frames: 4
Frame Time: 0.040000
0.000000 0.000000 -190.000000 0.000000 0.000000 0.000000 0.121200 10.790800 -0.713500 -0.010200 -0.011800 0.050200 -9.944700 0.698700 -3.767500 19.815901 -5.318000 -5.352400 0.000000 0.000000 0.000000 0.000000 0.000000 0.000000 0.000000 0.000000 0.000000 75.964302 25.968100 -2.445300 -11.592000 -7.519900 34.636398 8.050500 28.479700 5.241200 0.000000 0.000000 0.000000 0.000000 0.000000 0.000000 0.000000 0.000000 0.000000 0.023600 0.013500 0.013700 0.000000 0.000000 0.000000 0.030000 0.008600 0.015800 0.000000 0.000000 0.000000 0.015500 0.020900 0.035300 0.000000 0.000000 0.000000 0.027700 -0.022300 -0.029400 0.000000 0.000000 0.000000 -78.707703 24.032700 11.900600 10.125200 -7.255400 -18.539400 -15.593600 3.745200 -14.067000 0.000000 0.000000 0.000000 0.000000 0.000000 0.000000 0.000000 0.000000 0.000000 -0.013300 0.006100 -0.005200 0.000000 0.000000 0.000000 -0.033000 0.030300 -0.004900 0.000000 0.000000 0.000000 -0.030200 0.004100 -0.032500 0.000000 0.000000 0.000000 -0.003900 -0.018500 0.013800 0.000000 0.000000 0.000000 -7.144600 -8.708600 -0.768800 1.800800 22.434700 -2.530600 -1.107200 -8.588400 -8.078400 0.000000 0.000000 0.000000 2.653400 -15.557900 -5.508800 4.859900 24.976700 -1.227600 2.953700 -12.125700 5.977700 
0.000000 0.000000 -190.000000 0.000000 0.000000 0.000000 0.499700 9.331400 -0.617600 -0.010300 -0.011900 0.050400 -9.635900 -0.711400 -3.481200 19.993000 -5.743700 -5.372900 0.000000 0.000000 0.000000 0.000000 0.000000 0.000000 0.000000 0.000000 0.000000 76.116402 31.843000 -1.326700 -11.193500 -7.812600 32.047401 8.037200 29.609800 5.061100 0.000000 0.000000 0.000000 0.000000 0.000000 0.000000 0.000000 0.000000 0.000000 0.023700 0.013500 0.013700 0.000000 0.000000 0.000000 0.030200 0.008600 0.015900 0.000000 0.000000 0.000000 0.015500 0.021000 0.035400 0.000000 0.000000 0.000000 0.027800 -0.022400 -0.029600 0.000000 0.000000 0.000000 -77.748100 22.133900 13.865600 10.096000 -8.164600 -19.033701 -15.776900 4.672600 -15.201900 0.000000 0.000000 0.000000 0.000000 0.000000 0.000000 0.000000 0.000000 0.000000 -0.013300 0.006100 -0.005200 0.000000 0.000000 0.000000 -0.033100 0.030400 -0.005000 0.000000 0.000000 0.000000 -0.030300 0.004100 -0.032700 0.000000 0.000000 0.000000 -0.003900 -0.018600 0.013900 0.000000 0.000000 0.000000 -9.183300 -14.076500 -2.942100 3.358700 22.695999 -2.431300 -1.264000 -8.471400 -8.059000 0.000000 0.000000 0.000000 4.316800 -14.485400 -6.629000 4.453700 28.644899 -1.205100 2.925700 -11.478700 5.262800 
0.000000 0.000000 -190.000000 0.000000 0.000000 0.000000 0.387700 9.921600 -0.827500 -0.010300 -0.011900 0.050500 -9.292300 -2.137700 -3.380600 20.224501 -6.326400 -5.364000 0.000000 0.000000 0.000000 0.000000 0.000000 0.000000 0.000000 0.000000 0.000000 75.601997 23.971201 -3.306500 -11.284700 -7.539500 34.643902 7.993500 30.242001 5.275900 0.000000 0.000000 0.000000 0.000000 0.000000 0.000000 0.000000 0.000000 0.000000 0.023800 0.013500 0.013800 0.000000 0.000000 0.000000 0.030200 0.008600 0.015900 0.000000 0.000000 0.000000 0.015600 0.021000 0.035500 0.000000 0.000000 0.000000 0.027900 -0.022500 -0.029600 0.000000 0.000000 0.000000 -77.088097 22.032000 14.186400 10.209700 -8.117100 -19.225700 -16.056499 4.791900 -15.649200 0.000000 0.000000 0.000000 0.000000 0.000000 0.000000 0.000000 0.000000 0.000000 -0.013400 0.006100 -0.005200 0.000000 0.000000 0.000000 -0.033200 0.030500 -0.005000 0.000000 0.000000 0.000000 -0.030400 0.004100 -0.032800 0.000000 0.000000 0.000000 -0.003900 -0.018600 0.013900 0.000000 0.000000 0.000000 -10.797700 -15.633900 0.447500 1.627900 24.242599 -2.204200 -1.071400 -8.490500 -8.007100 0.000000 0.000000 0.000000 4.164500 -15.444000 -6.815100 4.190900 27.029400 -1.099500 3.077400 -11.819300 5.767200 
0.000000 0.000000 -190.000000 0.000000 0.000000 0.000000 -0.477300 9.012900 -0.541400 -0.010300 -0.011900 0.050600 -8.069000 -1.332000 -3.685900 19.822800 -3.555900 -4.192800 0.000000 0.000000 0.000000 0.000000 0.000000 0.000000 0.000000 0.000000 0.000000 77.123802 34.214901 -1.828000 -11.469200 -7.288300 31.748400 7.846000 27.164900 4.752100 0.000000 0.000000 0.000000 0.000000 0.000000 0.000000 0.000000 0.000000 0.000000 0.023800 0.013600 0.013800 0.000000 0.000000 0.000000 0.030300 0.008600 0.016000 0.000000 0.000000 0.000000 0.015600 0.021100 0.035600 0.000000 0.000000 0.000000 0.028000 -0.022500 -0.029700 0.000000 0.000000 0.000000 -76.004898 24.423000 14.567500 10.670300 -7.957800 -19.281601 -15.921000 5.375500 -15.402900 0.000000 0.000000 0.000000 0.000000 0.000000 0.000000 0.000000 0.000000 0.000000 -0.013400 0.006100 -0.005200 0.000000 0.000000 0.000000 -0.033300 0.030500 -0.005000 0.000000 0.000000 0.000000 -0.030400 0.004100 -0.032800 0.000000 0.000000 0.000000 -0.003900 -0.018600 0.013900 0.000000 0.000000 0.000000 -14.662700 -16.651300 -6.196800 2.736900 31.390200 -1.692700 -1.467700 -8.221700 -8.371400 0.000000 0.000000 0.000000 6.672700 -15.575300 -2.264800 2.889500 28.694401 -1.300000 2.785100 -11.116800 3.987300 
